:SAMPLES-PER-SECOND 30
:FULLY-SPECIFIED
:DEGREES
361
root  30.0418 34.3899 11.5183 -173.04 25.9795 179.264
LeftUpLeg  -9.61881 12.9413 -0.0473596
LeftLeg  11.4158 13.044 1.7544
LeftFoot  0.935561 -0.00166687 0.204152
LeftToes  -15.1044 2.48695e-006 -1.03773e-007
Spine  2.09177 0.560709 -1.52314
Spine1  3.96801 1.0598 -2.82631
RightShoulder  0.0431992 6.18819 5.35315
RightArm  -16.2888 -7.44992 80.0758
RightForeArm  28.7821 21.4364 3.96358
RightHand  0.156321 -4.75715 -3.38733
LeftShoulder1  0.0453198 -0.776106 -8.30032
LeftArm  -9.36317 1.93767 -70.3483
LeftForeArm  30.2545 -20.5539 -3.78214
LeftHand  0.0846855 2.46454 3.33792
HEad  -9.84436 -41.1904 4.79847
RightUpLeg  -7.68785 -2.83522 -7.34169
RightLeg  9.2117 10.9663 1.05832
RightFoot  1.74014 0.0022994 0.354834
RightToes  -32.1016 -0.158356 -0.264997
362
root  29.9906 34.3772 11.5053 -173.051 26.0967 179.25
LeftUpLeg  -9.67114 13.2554 -0.159087
LeftLeg  11.5276 12.8498 1.75401
LeftFoot  0.743622 -0.00088865 0.15593
LeftToes  -14.9808 2.48695e-006 -1.03773e-007
Spine  2.11029 0.597703 -1.54754
Spine1  3.99987 1.13286 -2.86182
RightShoulder  0.0440972 6.40854 5.39714
RightArm  -18.7981 -8.07635 79.7007
RightForeArm  29.7771 19.2262 3.51918
RightHand  0.165759 -4.89319 -3.50329
LeftShoulder1  0.046142 -0.7553 -8.39388
LeftArm  -9.20179 2.61486 -70.2669
LeftForeArm  30.3718 -20.1455 -3.70008
LeftHand  0.0847007 2.54978 3.30263
HEad  -10.074 -41.1543 4.75249
RightUpLeg  -7.81027 -2.6261 -7.45119
RightLeg  9.39304 10.8664 1.08329
RightFoot  1.68914 0.00407656 0.34369
RightToes  -32.2308 -0.159132 -0.265715
363
root  29.9409 34.3596 11.4969 -172.987 25.9802 179.151
LeftUpLeg  -9.90269 13.2767 -0.353197
LeftLeg  11.7245 12.6909 1.77671
LeftFoot  0.56236 -0.00109655 0.111968
LeftToes  -14.9108 2.48695e-006 -1.03773e-007
Spine  2.11945 0.550183 -1.60196
Spine1  4.01161 1.0397 -2.96297
RightShoulder  0.0450066 6.65092 5.49236
RightArm  -21.4531 -8.7337 79.2475
RightForeArm  31.3005 16.9123 3.0667
RightHand  0.193946 -4.93925 -4.11903
LeftShoulder1  0.0480613 -0.800837 -8.41285
LeftArm  -9.40965 3.5274 -70.0837
LeftForeArm  30.7894 -19.5337 -3.57785
LeftHand  0.0851917 2.64461 3.25459
HEad  -10.3743 -41.0142 4.88843
RightUpLeg  -8.01828 -2.68414 -7.61033
RightLeg  9.62033 10.7683 1.1165
RightFoot  1.56655 0.00656362 0.320277
RightToes  -32.472 -0.159814 -0.266361
364
root  29.8938 34.3379 11.4999 -172.844 25.9209 179.11
LeftUpLeg  -10.2505 13.3702 -0.500665
LeftLeg  12.0258 12.5074 1.81794
LeftFoot  0.345191 -0.000785257 0.0605327
LeftToes  -14.9247 2.48695e-006 -1.03773e-007
Spine  2.11252 0.524606 -1.64512
Spine1  3.98996 0.977966 -3.02562
RightShoulder  0.0473245 6.82426 5.60455
RightArm  -24.1514 -9.63598 78.6871
RightForeArm  33.0569 15.3438 2.76603
RightHand  0.221694 -4.8824 -4.82005
LeftShoulder1  0.0531613 -0.872588 -8.47813
LeftArm  -9.81567 4.55233 -69.7943
LeftForeArm  31.3537 -18.5603 -3.38538
LeftHand  0.087436 2.71843 3.30539
HEad  -10.6857 -40.9128 5.06154
RightUpLeg  -8.32914 -2.54151 -7.70711
RightLeg  9.89477 10.5347 1.14325
RightFoot  1.40284 0.00962773 0.286668
RightToes  -32.454 -0.160408 -0.266937
365
root  29.8493 34.3156 11.5068 -172.771 25.9298 179.027
LeftUpLeg  -10.5475 13.559 -0.673811
LeftLeg  12.3312 12.2947 1.85387
LeftFoot  0.140322 -1.74665e-005 0.0142551
LeftToes  -14.9891 2.48695e-006 -1.03773e-007
Spine  2.13223 0.49071 -1.69725
Spine1  4.02956 0.89381 -3.09145
RightShoulder  0.0484731 7.00827 5.67239
RightArm  -26.6721 -10.5991 78.079
RightForeArm  34.3182 14.0754 2.52634
RightHand  0.245261 -4.95976 -5.28145
LeftShoulder1  0.0592455 -0.935068 -8.60609
LeftArm  -10.6907 5.65194 -69.3977
LeftForeArm  32.1674 -17.3517 -3.14946
LeftHand  0.0911827 2.81085 3.33707
HEad  -11.0167 -40.7698 5.19115
RightUpLeg  -8.60498 -2.37826 -7.83899
RightLeg  10.1697 10.3426 1.17256
RightFoot  1.21146 0.0127425 0.251045
RightToes  -32.4372 -0.16092 -0.267446
366
root  29.8099 34.2946 11.525 -172.754 25.9086 178.899
LeftUpLeg  -10.8139 13.6305 -0.867965
LeftLeg  12.6204 12.1815 1.89946
LeftFoot  -0.0396691 0.00105144 -0.0229413
LeftToes  -14.963 2.48695e-006 -1.03773e-007
Spine  2.16364 0.439745 -1.76611
Spine1  4.10185 0.779599 -3.18839
RightShoulder  0.0440147 7.10949 5.69909
RightArm  -28.8531 -11.6028 77.5294
RightForeArm  35.0439 13.12 2.34779
RightHand  0.267162 -5.15301 -5.55473
LeftShoulder1  0.0647423 -0.960409 -8.72394
LeftArm  -11.8839 6.81506 -68.8889
LeftForeArm  33.1097 -16.0256 -2.89423
LeftHand  0.0974148 2.94587 3.40914
HEad  -11.3309 -40.6121 5.26067
RightUpLeg  -8.85821 -2.21821 -7.98953
RightLeg  10.4579 10.1049 1.19709
RightFoot  1.01035 0.0158003 0.215088
RightToes  -32.5191 -0.161355 -0.267891
367
root  29.7756 34.2788 11.5509 -172.731 25.9229 178.793
LeftUpLeg  -11.0685 13.5214 -1.02165
LeftLeg  12.895 12.2647 1.97194
LeftFoot  -0.216057 0.00240003 -0.057389
LeftToes  -14.6209 2.48695e-006 -1.03773e-007
Spine  2.20913 0.413988 -1.8304
Spine1  4.20635 0.727973 -3.28748
RightShoulder  0.0383094 7.14001 5.7663
RightArm  -30.7493 -12.574 76.9838
RightForeArm  35.5447 12.4312 2.21997
RightHand  0.283659 -5.23257 -5.82439
LeftShoulder1  0.0683673 -0.951778 -8.86674
LeftArm  -13.2798 7.9552 -68.2817
LeftForeArm  34.0181 -14.7188 -2.64611
LeftHand  0.112186 3.27725 3.54262
HEad  -11.655 -40.393 5.38928
RightUpLeg  -9.06275 -1.90116 -8.11869
RightLeg  10.602 9.78031 1.18382
RightFoot  0.942878 0.0172442 0.202981
RightToes  -32.9116 -0.161719 -0.268275
368
root  29.7468 34.2694 11.5821 -172.669 25.95 178.706
LeftUpLeg  -11.3022 13.6581 -1.16695
LeftLeg  13.0145 12.1516 1.97983
LeftFoot  -0.21789 0.00157982 -0.0516405
LeftToes  -14.7849 2.48695e-006 -1.03773e-007
Spine  2.23801 0.409218 -1.89633
Spine1  4.27953 0.730097 -3.40285
RightShoulder  0.0325455 7.18531 5.84267
RightArm  -32.2705 -13.5823 76.5086
RightForeArm  35.7549 12.0415 2.14804
RightHand  0.29506 -5.28716 -6.00642
LeftShoulder1  0.0702351 -0.992165 -9.01112
LeftArm  -14.9242 9.13468 -67.5488
LeftForeArm  34.9056 -13.4481 -2.4078
LeftHand  0.121918 3.38833 3.74262
HEad  -11.8773 -40.1176 5.51368
RightUpLeg  -9.2608 -1.74088 -8.21848
RightLeg  10.6617 9.62307 1.1751
RightFoot  0.865897 0.0184295 0.193692
RightToes  -32.6815 -0.162017 -0.268599
369
root  29.7277 34.2631 11.6156 -172.572 25.9885 178.628
LeftUpLeg  -11.5153 13.8188 -1.29424
LeftLeg  13.0288 12.0198 1.96171
LeftFoot  -0.201783 0.000805086 -0.0407099
LeftToes  -14.797 2.48695e-006 -1.03773e-007
Spine  2.24372 0.421473 -1.95482
Spine1  4.30886 0.774967 -3.51687
RightShoulder  0.0261344 7.19655 5.86308
RightArm  -33.3837 -14.579 76.1891
RightForeArm  35.8709 12.1166 2.16174
RightHand  0.29959 -5.30451 -6.08296
LeftShoulder1  0.0708539 -0.974305 -9.13186
LeftArm  -16.5901 10.2566 -66.7944
LeftForeArm  35.8399 -12.2786 -2.19067
LeftHand  0.138615 3.59464 4.03745
HEad  -11.9258 -39.9035 5.555
RightUpLeg  -9.43717 -1.60349 -8.29076
RightLeg  10.5987 9.49237 1.14874
RightFoot  0.885796 0.0184673 0.201035
RightToes  -32.7521 -0.162255 -0.268867
370
root  29.7156 34.2615 11.6509 -172.471 25.99 178.593
LeftUpLeg  -11.7081 13.9013 -1.36257
LeftLeg  13.0407 11.9323 1.95018
LeftFoot  -0.154906 -3.17937e-005 -0.023528
LeftToes  -14.8743 2.48695e-006 -1.03773e-007
Spine  2.26402 0.442327 -1.99976
Spine1  4.36481 0.843589 -3.61564
RightShoulder  0.024419 7.14703 5.86255
RightArm  -34.0972 -15.3268 76.0037
RightForeArm  35.9298 12.2103 2.17892
RightHand  0.301953 -5.33819 -6.1418
LeftShoulder1  0.0694828 -0.955048 -9.20503
LeftArm  -18.1635 11.2617 -66.0407
LeftForeArm  36.7027 -11.3201 -2.01409
LeftHand  0.156108 3.82483 4.29492
HEad  -11.8813 -39.729 5.61111
RightUpLeg  -9.5614 -1.62104 -8.31307
RightLeg  10.4783 9.49604 1.12905
RightFoot  0.973251 0.0176022 0.221222
RightToes  -32.8834 -0.162439 -0.269081
371
root  29.7104 34.2607 11.685 -172.357 25.9857 178.581
LeftUpLeg  -11.8797 13.9735 -1.40194
LeftLeg  13.0106 11.8602 1.93223
LeftFoot  -0.0897757 -2.45816e-006 -0.00314653
LeftToes  -14.9231 2.48695e-006 -1.03773e-007
Spine  2.28951 0.471916 -2.02653
Spine1  4.42771 0.931309 -3.68411
RightShoulder  0.0243833 7.07838 5.89096
RightArm  -34.5566 -15.8132 75.8784
RightForeArm  36.0099 12.2484 2.18586
RightHand  0.302783 -5.30884 -6.10472
LeftShoulder1  0.0671702 -0.917083 -9.29398
LeftArm  -19.6258 12.1343 -65.3064
LeftForeArm  37.4408 -10.5698 -1.87667
LeftHand  0.165028 3.82226 4.5644
HEad  -11.8945 -39.5724 5.66663
RightUpLeg  -9.70663 -1.80995 -8.30223
RightLeg  10.4191 9.67427 1.13996
RightFoot  1.02867 0.0168211 0.23894
RightToes  -32.9241 -0.162574 -0.269245
372
root  29.7125 34.2597 11.72 -172.247 26.0428 178.577
LeftUpLeg  -12.0316 14.055 -1.41921
LeftLeg  12.9795 11.8289 1.92065
LeftFoot  -0.0412586 -9.42163e-006 0.0122254
LeftToes  -14.8329 2.48695e-006 -1.03773e-007
Spine  2.3157 0.517532 -2.05008
Spine1  4.48704 1.04959 -3.74791
RightShoulder  0.0255884 7.05677 5.99148
RightArm  -34.6538 -16.0255 75.7867
RightForeArm  35.968 12.1674 2.171
RightHand  0.303011 -5.36814 -6.11631
LeftShoulder1  0.0643992 -0.816875 -9.39344
LeftArm  -20.4623 12.8629 -64.5773
LeftForeArm  37.7832 -10.1577 -1.80155
LeftHand  0.178801 3.98467 4.75822
HEad  -11.9941 -39.3925 5.75981
RightUpLeg  -9.8978 -1.91097 -8.27728
RightLeg  10.447 9.82379 1.16223
RightFoot  1.0724 0.0161522 0.253765
RightToes  -33.1504 -0.162665 -0.26936
373
root  29.7217 34.2583 11.7503 -172.131 26.0909 178.587
LeftUpLeg  -12.1724 14.1452 -1.41704
LeftLeg  12.9452 11.7992 1.90872
LeftFoot  0.0406085 -0.000492166 0.0331739
LeftToes  -14.9236 2.48695e-006 -1.03773e-007
Spine  2.3315 0.568628 -2.05757
Spine1  4.51997 1.17382 -3.77692
RightShoulder  0.0276452 7.00364 6.15815
RightArm  -34.6754 -15.9294 75.7201
RightForeArm  36.0398 11.8941 2.12069
RightHand  0.303954 -5.32727 -6.13419
LeftShoulder1  0.0617841 -0.719864 -9.48178
LeftArm  -21.137 13.3676 -63.9823
LeftForeArm  38.0578 -9.87647 -1.75036
LeftHand  0.18152 3.96235 4.86537
HEad  -12.0289 -39.3064 5.71451
RightUpLeg  -10.0763 -2.08166 -8.23455
RightLeg  10.4822 10.0516 1.19515
RightFoot  1.11841 0.0152926 0.270408
RightToes  -33.2221 -0.162719 -0.269429
374
root  29.7401 34.2561 11.7757 -171.982 26.1051 178.619
LeftUpLeg  -12.351 14.1815 -1.38707
LeftLeg  12.9732 11.7878 1.91275
LeftFoot  0.0973315 -0.000639833 0.0474697
LeftToes  -15.0494 2.48695e-006 -1.03773e-007
Spine  2.30899 0.610817 -2.06257
Spine1  4.47106 1.2738 -3.79642
RightShoulder  0.0300877 6.94318 6.31653
RightArm  -34.7078 -15.6818 75.8118
RightForeArm  36.1213 11.6513 2.07608
RightHand  0.301493 -5.37412 -6.0834
LeftShoulder1  0.0599392 -0.605707 -9.54725
LeftArm  -21.7597 13.68 -63.5366
LeftForeArm  38.4985 -9.70983 -1.71977
LeftHand  0.185239 3.92197 4.99236
HEad  -11.7775 -39.2509 5.55654
RightUpLeg  -10.2428 -2.47228 -8.15139
RightLeg  10.4992 10.4502 1.24517
RightFoot  1.12221 0.0146221 0.282986
RightToes  -33.0194 -0.162741 -0.269456
375
root  29.7633 34.2511 11.7962 -171.877 26.1278 178.65
LeftUpLeg  -12.4941 14.1839 -1.33686
LeftLeg  13.0489 11.8165 1.93324
LeftFoot  0.11983 -0.000333681 0.0536392
LeftToes  -15.1721 2.48695e-006 -1.03773e-007
Spine  2.27921 0.650307 -2.07486
Spine1  4.40296 1.36131 -3.82129
RightShoulder  0.0324839 6.87363 6.44928
RightArm  -34.7221 -15.3441 76.0788
RightForeArm  36.0901 11.8424 2.11116
RightHand  0.300951 -5.30909 -6.10664
LeftShoulder1  0.0587142 -0.446785 -9.69492
LeftArm  -22.2238 13.7283 -63.1595
LeftForeArm  38.6678 -9.68822 -1.71569
LeftHand  0.189227 3.87831 5.11283
HEad  -11.5821 -39.2291 5.33668
RightUpLeg  -10.374 -2.79137 -8.06557
RightLeg  10.5418 10.7889 1.29314
RightFoot  1.15513 0.0136176 0.299628
RightToes  -33.2595 -0.162736 -0.269442
